<?xml version="1.0" encoding="UTF-8"?>
<svg enable-background="new -0.258 -0.548 123.547 123.539" viewBox="-0.258 -0.548 123.547 123.539" xmlns="http://www.w3.org/2000/svg">
 <path d="m109.63 122.89c8.148 0 14.766-6.617 14.766-14.773v-94.016c0-8.156-6.617-14.75-14.766-14.75h-94.016c-8.156 0-14.758 6.594-14.758 14.75v94.016c0 8.156 6.602 14.773 14.758 14.773h94.016z" fill="#231f20"/>
 <path d="m15.617 1.84c-6.758 0-12.258 5.492-12.258 12.258v94.016c0 6.766 5.5 12.258 12.258 12.258h94.016c6.758 0 12.25-5.492 12.25-12.258v-94.016c0-6.766-5.492-12.258-12.25-12.258h-94.016z" fill="#fff"/>
 <path d="m71.32,59.363c7.008,0 12.695-5.695 12.695-12.695 0-7.031-5.688-12.719-12.695-12.719l-18.727-.031v25.445h18.727zm-.265-41.07c15.867,0 28.711,12.844 28.711,28.688 0,15.875-12.844,28.711-28.711,28.711l-18.461-.023v27.25h-16.539v-84.626h35z" fill="#231f20"/>
</svg>
